<?xml version="1.0" encoding="UTF-8"?>
<svg width="35px" height="35px" viewBox="0 0 35 35" version="1.1" xmlns="http://www.w3.org/2000/svg" xmlns:xlink="http://www.w3.org/1999/xlink">
    <!-- Generator: Sketch 46.2 (44496) - http://www.bohemiancoding.com/sketch -->
    <title>lang</title>
    <desc>Created with Sketch.</desc>
    <defs></defs>
    <g id="Symbols" stroke="none" stroke-width="1" fill="none" fill-rule="evenodd">
        <g id="navbar" transform="translate(-1170.000000, -15.000000)" fill="#FFFFFF">
            <g id="lang" transform="translate(1170.000000, 15.000000)">
                <g id="Group-2" transform="translate(4.000000, 7.000000)" font-size="20.834" font-family="DINNextLTPro-Regular, DIN Next LT Pro" font-weight="normal">
                    <text id="es">
                        <tspan x="2.45871772" y="16">es</tspan>
                    </text>
                </g>
                <path d="M17.4998,0 C7.83506046,0 -0.0002,7.83526046 -0.0002,17.5 C-0.0002,27.1647395 7.83506046,35 17.4998,35 C27.1645395,35 34.9998,27.1647395 34.9998,17.5 C34.9998,7.83526046 27.1645395,0 17.4998,0 M17.4998,1.04303254 C26.5741831,1.04303254 33.9567675,8.42561688 33.9567675,17.5 C33.9567675,26.5743831 26.5741831,33.9569675 17.4998,33.9569675 C8.42541688,33.9569675 1.04283254,26.5743831 1.04283254,17.5 C1.04283254,8.42561688 8.42541688,1.04303254 17.4998,1.04303254" id="Fill-3"></path>
            </g>
        </g>
    </g>
</svg>