<?xml version="1.0" encoding="utf-8"?>
<!-- Generator: Adobe Illustrator 21.1.0, SVG Export Plug-In . SVG Version: 6.00 Build 0)  -->
<svg version="1.1" xmlns="http://www.w3.org/2000/svg" xmlns:xlink="http://www.w3.org/1999/xlink" x="0px" y="0px"
	 viewBox="0 0 668 82" style="enable-background:new 0 0 668 82;" xml:space="preserve">
<style type="text/css">
	.st0{fill:#F2F2F2;}
	.st1{fill:#FFFFFF;}
	.st2{fill:#00336F;}
	.st3{fill:#6BB5A0;}
	.st4{fill:#85C4B4;}
	.st5{fill:#797F7D;}
	.st6{fill:#C6C6C6;}
	.st7{fill:#8A8E91;}
	.st8{fill:none;stroke:#F4F4F4;stroke-miterlimit:10;}
	.st9{fill:none;stroke:#6BB5A0;stroke-miterlimit:10;}
	.st10{fill-rule:evenodd;clip-rule:evenodd;fill:#A0A0A0;}
	.st11{fill-rule:evenodd;clip-rule:evenodd;fill:#6BB5A0;}
	.st12{fill:none;stroke:#00336F;stroke-miterlimit:10;}
	.st13{fill:#FFCE00;}
	.st14{opacity:0.15;}
	.st15{opacity:0.69;}
	.st16{opacity:0.76;}
	.st17{fill:#3FE0CD;}
</style>
<g id="Hintergrund">
</g>
<g id="Smartphone_Gold">
	<g id="Seitliche_Tasten">
	</g>
	<g id="Antennenlinien">
	</g>
	<g id="Rand">
	</g>
	<g id="_x5B_IHR_BILDSCHIRM_x5D_">
	</g>
	<g id="Oben">
		<g id="Sensor_3_">
		</g>
		<g id="Mikrofonempfänger">
		</g>
		<g id="Kamera">
		</g>
	</g>
	<g id="Schattierung_dunkel">
	</g>
	<g id="Schattierung_hell">
	</g>
</g>
<g id="Smartphone_Roségold">
	<g id="Seitliche_Tasten_1_">
	</g>
	<g id="Gehäuse_1_">
	</g>
	<g id="Antennenlinien_1_">
	</g>
	<g id="Rand_1_">
	</g>
	<g id="_x5B_IHR_BILDSCHIRM_x5D__1_">
	</g>
	<g id="Sensor_2_">
	</g>
	<g id="Mikrofonempfänger_1_">
	</g>
	<g id="Schattierung_dunkel_1_">
	</g>
	<g id="Schattierung_hell_1_">
	</g>
</g>
<g id="Smartphone_Silber">
	<g id="Seitliche_Tasten_2_">
	</g>
	<g id="Gehäuse_2_">
	</g>
	<g id="Antennenlinien_2_">
	</g>
	<g id="Rand_2_">
	</g>
	<g id="_x5B_IHR_BILDSCHIRM_x5D__2_">
	</g>
	<g id="Oben_1_">
		<g id="Sensor_1_">
		</g>
		<g id="Mikrofonempfänger_2_">
		</g>
		<g id="Kamera_1_">
		</g>
	</g>
	<g id="Schattierung_dunkel_2_">
	</g>
	<g id="Schattierung_hell_2_">
	</g>
</g>
<g id="Smartphone_Space_Grau">
	<g id="Antennenlinien_3_">
	</g>
	<g id="Rand_3_">
	</g>
	<g id="_x5B_IHR_BILDSCHIRM_x5D__3_">
	</g>
	<g id="Schattierung_dunkel_3_">
	</g>
	<g>
		<path class="st2" d="M7.7,79.6H0V1.6h7.7V79.6z"/>
		<path class="st2" d="M22.6,79.6V1.6h11.3l27,67.8L87.7,1.6H99v77.9h-7.3V10.7L64.3,79.6h-6.9L30,10.7v68.8H22.6z"/>
		<path class="st2" d="M113.2,79.6V1.6h11.3l27,67.8l26.9-67.8h11.3v77.9h-7.3V10.7l-27.4,68.8H148l-27.4-68.8v68.8H113.2z"/>
		<path class="st2" d="M202.5,1.6H219c4.7,0,8.5,0.2,11.4,0.7c2.9,0.5,5.2,1.3,7.1,2.4c3.4,2.1,6.1,4.8,7.9,8.1s2.8,7,2.8,11.2
			c0,3.9-0.8,7.6-2.5,10.9c-1.7,3.3-4,6-6.9,8c-2.1,1.4-4.5,2.4-7.4,3c-2.9,0.6-6.5,0.9-11,0.9h-10.2v32.8h-7.7V1.6z M210.1,9.3V39
			h11.3c6.3,0,10.9-1.2,13.9-3.6c3-2.4,4.5-6.1,4.5-11.1c0-5.2-1.5-9-4.5-11.4s-7.9-3.6-14.5-3.6H210.1z"/>
		<path class="st2" d="M254.7,40.1c0-5.4,1-10.6,3.1-15.5s5.1-9.3,9.1-13.2c3.8-3.7,8-6.6,12.6-8.5c4.6-1.9,9.6-2.8,14.9-2.8
			c5.5,0,10.5,1,15.2,2.9c4.7,1.9,8.9,4.8,12.8,8.5c4,3.9,6.9,8.2,8.9,13.1c2,4.8,3,10,3,15.6c0,5.5-0.9,10.6-2.6,15.2
			C330,60,327.4,64.2,324,68c-4,4.4-8.4,7.6-13.4,9.8c-5,2.2-10.4,3.3-16.3,3.3c-11.2,0-20.6-3.9-28.2-11.8
			C258.5,61.5,254.7,51.7,254.7,40.1z M262.7,40.2c0,9.5,3.1,17.5,9.3,23.9c6.2,6.4,13.8,9.6,22.9,9.6c8.9,0,16.3-3.2,22.4-9.7
			c6.1-6.5,9.2-14.5,9.2-24c0-8.8-3.1-16.5-9.4-22.9c-6.3-6.4-13.8-9.6-22.7-9.6c-3.6,0-7.1,0.6-10.4,1.8c-3.3,1.2-6.4,3-9.2,5.4
			c-3.7,3.1-6.6,7-8.8,11.5S262.7,35.5,262.7,40.2z"/>
		<path class="st2" d="M385.8,1.6l15.7,63.9L421,1.6h7.5l-24.1,77.9H398L382.4,16l-15.7,63.6h-6.4L336.1,1.6h7.6L363,65.6l15.8-63.9
			H385.8z"/>
		<path class="st2" d="M441.8,36.6h32.8v7.7h-32.8V72h32.8v7.5h-40.5V1.6h40.5v7.7h-32.8V36.6z"/>
		<path class="st2" d="M495.6,9.3v70.3H488V1.6H509c4.6,0,8.3,0.3,11.1,1c2.8,0.7,5.3,1.8,7.6,3.5c3.1,2.2,5.6,5.1,7.4,8.7
			c1.8,3.6,2.7,7.5,2.7,11.6c0,6-1.8,11.2-5.4,15.6c-3.6,4.4-8.1,6.7-13.5,7.1l18.8,30.5h-9.1L505.5,42h7.4c4.9,0,8.9-1.4,12-4.3
			c3.1-2.9,4.6-6.6,4.6-11.1c0-2.7-0.5-5.2-1.4-7.5c-0.9-2.2-2.3-4.2-4.2-5.9c-1.5-1.4-3.4-2.4-5.5-3c-2.2-0.6-6-0.9-11.5-0.9H495.6
			z"/>
		<path class="st2" d="M557.8,36.6h32.8v7.7h-32.8V72h32.8v7.5h-40.5V1.6h40.5v7.7h-32.8V36.6z"/>
		<path class="st2" d="M605.1,1.6h22.2c6.1,0,11.2,0.6,15.4,1.8c4.2,1.2,7.8,3.2,11,5.8c4.5,3.7,7.9,8.3,10.4,13.8
			c2.5,5.4,3.7,11.2,3.7,17.4c0,6.9-1.4,13.2-4.1,18.8c-2.7,5.7-6.5,10.3-11.5,13.8c-3.3,2.3-6.8,4-10.7,5c-3.8,1-9.7,1.5-17.7,1.5
			h-18.7V1.6z M612.7,9.1v63.2h15.9c9.9,0,17.6-2.8,22.9-8.4s8-13.5,8-23.7c0-5.1-0.9-9.8-2.7-14.1c-1.8-4.3-4.4-7.9-7.8-10.9
			c-2.5-2.2-5.4-3.8-8.5-4.7c-3.1-0.9-7.7-1.4-13.7-1.4H612.7z"/>
	</g>
</g>
</svg>
