<?xml version="1.0" encoding="UTF-8"?>
<svg width="34px" height="34px" viewBox="0 0 34 34" version="1.1" xmlns="http://www.w3.org/2000/svg" xmlns:xlink="http://www.w3.org/1999/xlink">
    <!-- Generator: Sketch 46.2 (44496) - http://www.bohemiancoding.com/sketch -->
    <title>profile</title>
    <desc>Created with Sketch.</desc>
    <defs>
        <polygon id="path-1" points="0 0.4445 0 34 33.5558 34 33.5558 0.4445"></polygon>
    </defs>
    <g id="Symbols" stroke="none" stroke-width="1" fill="none" fill-rule="evenodd">
        <g id="navbar" transform="translate(-1221.000000, -16.000000)">
            <g id="profile" transform="translate(1221.000000, 15.000000)">
                <g id="Group-5" transform="translate(0.000000, 0.555500)">
                    <mask id="mask-2" fill="white">
                        <use xlink:href="#path-1"></use>
                    </mask>
                    <g id="Clip-4"></g>
                    <path d="M16.7778,0.4445 C7.5118,0.4445 -0.0002,7.9565 -0.0002,17.2225 C-0.0002,26.4885 7.5118,34.0005 16.7778,34.0005 C26.0438,34.0005 33.5558,26.4885 33.5558,17.2225 C33.5558,7.9565 26.0438,0.4445 16.7778,0.4445 M16.7778,1.4445 C25.4778,1.4445 32.5558,8.5225 32.5558,17.2225 C32.5558,25.9225 25.4778,33.0005 16.7778,33.0005 C8.0778,33.0005 0.9998,25.9225 0.9998,17.2225 C0.9998,8.5225 8.0778,1.4445 16.7778,1.4445" id="Fill-3" fill="#FFFFFF" mask="url(#mask-2)"></path>
                </g>
                <path d="M23.9566,12.8595 C23.9566,16.8245 20.7426,20.0385 16.7776,20.0385 C12.8136,20.0385 9.5986,16.8245 9.5986,12.8595 C9.5986,8.8945 12.8136,5.6805 16.7776,5.6805 C20.7426,5.6805 23.9566,8.8945 23.9566,12.8595" id="Fill-6" fill="#FFFFFF"></path>
                <path d="M21.3367,21.2233 L21.3317,21.2323 L20.9447,20.0383 C20.5827,20.2323 20.2057,20.4023 19.8167,20.5443 C19.3057,20.7853 18.8217,20.9033 18.2377,20.9583 C17.7627,21.0373 17.2757,21.0803 16.7777,21.0803 C15.3127,21.0803 13.9317,20.7223 12.7157,20.0913 L12.3647,21.2453 C11.3217,21.3623 7.5227,22.0843 6.4977,26.4453 C9.1617,29.0143 12.7847,30.5943 16.7777,30.5943 C20.9377,30.5943 24.6967,28.8783 27.3877,26.1183 C26.0637,21.3703 21.3367,21.2233 21.3367,21.2233" id="Fill-8" fill="#FFFFFF"></path>
            </g>
        </g>
    </g>
</svg>